<svg xmlns="http://www.w3.org/2000/svg" viewBox="0 0 300 300" xml:space="preserve"><circle transform="rotate(-45.001 150 118.226)" fill="#E5E5E4" cx="150" cy="118.224" r="98.68"/><path fill="#EFEFEF" d="M62.284 118.224c0-52.649 41.272-95.543 93.198-98.402-1.826-.102-3.63-.278-5.482-.278-54.491 0-98.68 44.179-98.68 98.68s44.19 98.681 98.68 98.681c1.852 0 3.657-.177 5.482-.279-51.926-2.859-93.198-45.753-93.198-98.402z"/><path fill="#FE6F80" d="m100.954 203.772-31.646 54.729 26.19-1.48 11.778 23.436 36.92-63.846c-15.686-.916-30.366-5.44-43.242-12.839z"/><path fill="#FFA1AA" d="M121.031 212.458a97.234 97.234 0 0 1-20.076-8.687L69.309 258.5l25.944-1.467 25.778-44.575z"/><path fill="#FE6F80" d="M199.046 203.772c-12.871 7.399-27.556 11.923-43.237 12.838l36.914 63.846 11.778-23.436 26.191 1.48-31.646-54.728z"/><path fill="#FFA1AA" d="M179.301 212.351a98.954 98.954 0 0 1-23.492 4.259l36.914 63.846 11.778-23.436.648.037-25.848-44.706z"/><path fill="#7FD3B9" d="M186.041 137.972c-2.8-17.406-17.844-30.712-36.041-30.712s-33.242 13.307-36.041 30.712c-10.558 1.269-18.781 9.249-18.781 20.148 0 11.773 9.551 20.409 21.319 20.409h67.007c11.768 0 21.319-8.636 21.319-20.409-.001-10.9-8.224-18.88-18.782-20.148z"/><path fill="#BBEAD9" d="M106.142 158.12c0-10.9 8.223-18.88 18.781-20.148 2.511-15.62 14.894-27.904 30.559-30.267-1.793-.271-3.614-.445-5.482-.445-18.197 0-33.242 13.307-36.041 30.712-10.558 1.269-18.781 9.249-18.781 20.148 0 11.773 9.551 20.409 21.319 20.409h10.965c-11.769 0-21.32-8.636-21.32-20.409z"/><ellipse fill="#7FD3B9" cx="95.178" cy="107.26" rx="10.964" ry="16.447"/><ellipse fill="#7FD3B9" cx="128.071" cy="74.366" rx="10.964" ry="16.447"/><ellipse fill="#7FD3B9" cx="171.929" cy="74.366" rx="10.964" ry="16.447"/><ellipse fill="#7FD3B9" cx="204.822" cy="107.26" rx="10.964" ry="16.447"/><path fill="#BBEAD9" d="M89.695 107.26c0-7.653 3.506-14.03 8.223-15.863-.883-.343-1.788-.583-2.741-.583-6.05 0-10.964 7.364-10.964 16.447 0 9.083 4.915 16.447 10.964 16.447.953 0 1.858-.241 2.741-.583-4.716-1.836-8.223-8.212-8.223-15.865zM199.34 107.26c0-7.653 3.506-14.03 8.223-15.863-.883-.343-1.788-.583-2.741-.583-6.05 0-10.964 7.364-10.964 16.447 0 9.083 4.915 16.447 10.964 16.447.953 0 1.858-.241 2.741-.583-4.716-1.836-8.223-8.212-8.223-15.865zM166.447 74.366c0-7.653 3.506-14.03 8.223-15.863-.883-.343-1.788-.583-2.741-.583-6.05 0-10.965 7.364-10.965 16.447 0 9.082 4.915 16.447 10.965 16.447.953 0 1.858-.241 2.741-.583-4.717-1.835-8.223-8.212-8.223-15.865zM122.589 74.366c0-7.653 3.506-14.03 8.223-15.863-.883-.343-1.788-.583-2.741-.583-6.05 0-10.965 7.364-10.965 16.447 0 9.082 4.915 16.447 10.965 16.447.953 0 1.858-.241 2.741-.583-4.717-1.835-8.223-8.212-8.223-15.865z"/><g><path fill="#161616" d="M107.277 285.939c-.053 0-.107 0-.161-.003a5.485 5.485 0 0 1-4.738-3.017l-10.164-20.221-22.595 1.277c-2.053.086-3.924-.889-4.979-2.602a5.477 5.477 0 0 1-.078-5.616l31.646-54.729c1.515-2.615 4.861-3.501 7.479-2.01 12.509 7.19 26.247 11.27 40.831 12.118a5.495 5.495 0 0 1 4.508 2.875 5.486 5.486 0 0 1-.086 5.343L112.023 283.2a5.485 5.485 0 0 1-4.746 2.739zm-11.781-34.401a5.485 5.485 0 0 1 4.899 3.02l7.22 14.364 27.583-47.699a102.189 102.189 0 0 1-32.163-10.097l-23.896 41.328 16.048-.907c.103-.006.207-.009.309-.009zM183.504 184.011h-67.008c-15.028 0-26.801-11.371-26.801-25.891 0-11.875 8.052-21.782 19.646-24.836 4.717-18.473 21.241-31.507 40.659-31.507s35.94 13.034 40.662 31.507c11.591 3.054 19.643 12.964 19.643 24.836 0 14.52-11.773 25.891-26.801 25.891zM150 112.742c-15.317 0-28.193 10.975-30.623 26.1a5.487 5.487 0 0 1-4.762 4.572c-8.215.988-13.955 7.035-13.955 14.707 0 8.51 6.807 14.926 15.836 14.926h67.008c9.027 0 15.837-6.417 15.837-14.926 0-7.672-5.739-13.719-13.952-14.707a5.483 5.483 0 0 1-4.759-4.572c-2.432-15.122-15.313-26.1-30.63-26.1zM95.177 129.189c-9.222 0-16.447-9.631-16.447-21.929s7.225-21.929 16.447-21.929 16.447 9.631 16.447 21.929-7.225 21.929-16.447 21.929zm0-32.894c-2.182 0-5.482 4.374-5.482 10.964s3.301 10.965 5.482 10.965c2.182 0 5.482-4.374 5.482-10.965s-3.3-10.964-5.482-10.964zM128.071 96.295c-9.224 0-16.447-9.631-16.447-21.929s7.222-21.929 16.447-21.929c9.225 0 16.447 9.631 16.447 21.929s-7.222 21.929-16.447 21.929zm0-32.893c-2.184 0-5.482 4.374-5.482 10.965 0 6.59 3.298 10.965 5.482 10.965s5.482-4.374 5.482-10.965-3.298-10.965-5.482-10.965zM171.929 96.295c-9.225 0-16.447-9.631-16.447-21.929s7.222-21.929 16.447-21.929 16.447 9.631 16.447 21.929-7.222 21.929-16.447 21.929zm0-32.893c-2.184 0-5.482 4.374-5.482 10.965 0 6.59 3.298 10.965 5.482 10.965s5.482-4.374 5.482-10.965-3.298-10.965-5.482-10.965zM204.822 129.189c-9.225 0-16.447-9.631-16.447-21.929s7.222-21.929 16.447-21.929 16.447 9.631 16.447 21.929-7.222 21.929-16.447 21.929zm0-32.894c-2.184 0-5.482 4.374-5.482 10.964s3.298 10.965 5.482 10.965 5.482-4.374 5.482-10.965-3.297-10.964-5.482-10.964z"/><path fill="#161616" d="M150 222.387c-57.435 0-104.163-46.728-104.163-104.163 0-24.967 9.045-49.155 25.468-68.113 1.978-2.283 5.448-2.543 7.734-.554a5.481 5.481 0 0 1 .554 7.734c-14.696 16.963-22.791 38.603-22.791 60.934 0 51.391 41.807 93.198 93.198 93.198s93.198-41.808 93.198-93.198S201.391 25.026 150 25.026c-19.921 0-38.997 6.296-55.162 18.211a5.49 5.49 0 0 1-7.667-1.162 5.485 5.485 0 0 1 1.162-7.667c18.066-13.312 39.39-20.347 61.667-20.347 57.435 0 104.163 46.728 104.163 104.163S207.435 222.387 150 222.387z"/><path fill="#161616" d="M192.723 285.939a5.475 5.475 0 0 1-4.743-2.738l-36.914-63.846a5.486 5.486 0 0 1-.086-5.343 5.495 5.495 0 0 1 4.508-2.875c14.584-.851 28.321-4.928 40.828-12.118 2.613-1.499 5.969-.608 7.474 2.01l6.885 11.907a5.48 5.48 0 0 1-1.997 7.49 5.477 5.477 0 0 1-7.49-2.002l-4.224-7.294a102.155 102.155 0 0 1-32.155 10.094l27.577 47.697 7.217-14.362c.98-1.949 2.902-3.164 5.209-3.011l16.051.907-8.689-15.028a5.478 5.478 0 0 1 1.997-7.49 5.477 5.477 0 0 1 7.49 2.002l13.775 23.819a5.474 5.474 0 0 1-.075 5.616c-1.055 1.716-2.827 2.741-4.979 2.602l-22.598-1.277-10.161 20.221a5.485 5.485 0 0 1-4.738 3.017c-.055.002-.108.002-.162.002z"/></g></svg>