<svg xmlns="http://www.w3.org/2000/svg" viewBox="0 0 512 512" style="enable-background:new 0 0 512 512" xml:space="preserve"><style>.st1{fill:#fff}</style><path d="M512 256c0 141.4-114.6 256-256 256S0 397.4 0 256 114.6 0 256 0s256 114.6 256 256z" style="fill:rgb(20,184,166)" id="Layer_9"/><g id="Layer_7"><path class="st1" d="M351.2 232c16.7 16.7 16.7 43.9 0 60.6l-61.7 61.7c-16.7 16.7-43.9 16.7-60.6 0l-.2-.2c-16.7-16.7-16.7-43.9 0-60.6l61.7-61.7c16.7-16.7 43.9-16.7 60.6 0l.2.2z"/><path class="st1" d="M297.4 239.4c21.1 21.1 24.6 52 7.7 68.9-16.9 16.9-47.7 13.5-68.9-7.7-21.1-21.1-24.6-52-7.7-68.9 16.9-16.9 47.8-13.5 68.9 7.7zM261.2 154.5c13.1 13.1 13.1 34.2 0 47.3-13.1 13.1-34.2 13.1-47.3 0-13.1-13.1-13.1-34.2 0-47.3 13.1-13.1 34.2-13.1 47.3 0zM198.6 217.1c13.1 13.1 13.1 34.2 0 47.3-13.1 13.1-34.2 13.1-47.3 0-13.1-13.1-13.1-34.2 0-47.3 13.1-13.1 34.2-13.1 47.3 0z"/><g><path class="st1" d="M194.1 303c10.9 10.9 10.9 28.7 0 39.6-10.9 10.9-28.7 10.9-39.6 0-10.9-10.9-10.9-28.7 0-39.6 10.9-10.9 28.6-10.9 39.6 0zM339.5 157.6c10.9 10.9 10.9 28.7 0 39.6-10.9 10.9-28.7 10.9-39.6 0-10.9-10.9-10.9-28.7 0-39.6 10.9-10.9 28.6-10.9 39.6 0z"/></g></g></svg>